<?xml version="1.0" encoding="UTF-8"?>
<svg id="Layer_1" xmlns="http://www.w3.org/2000/svg" version="1.1" viewBox="0 0 1920 1280">
  <!-- Generator: Adobe Illustrator 29.0.1, SVG Export Plug-In . SVG Version: 2.1.0 Build 192)  -->
  <defs>
    <style>
      .st0 {
        fill: #1e1e1e;
      }
    </style>
  </defs>
  <path class="st0" d="M-1.74,801.96c20.28,3.56,40.83,5.68,61.63,6.34.28,0,.54.18.64.45.14.36-.04.77-.4.91-21.87,8.73-48.2,18.34-64.84,37.21h1924.72c-.42-.48-.83-.95-1.28-1.43-4.88-5.15-10.85-9.9-17.91-14.24-24.91-15.29-48.65-22.97-76.01-31.57-.17-.06-.31-.18-.39-.34-.16-.32-.03-.71.29-.85,19.08-8.99,38.95-10.35,59.59-4.06,1.55.49,2.7.66,3.45.53.5-.08.96-.37,1.22-.81.49-.81.23-1.88-.59-2.37-23.01-14-51.57-16.11-77.42-14.87-.25.03-.49-.1-.59-.34-.12-.28.02-.61.3-.73,18.76-9.41,41.41-16.82,62.12-13.97.26.03.52-.09.66-.31.22-.33.13-.76-.2-.98-29.65-17.33-74.92-12.11-105.9-1.29-.25.1-.53.03-.72-.17-.24-.27-.23-.68.03-.93,6.32-6.14,13.85-11.75,22.6-16.82,2.09-1.22,3.79-2.41,5.08-3.57.27-.24.42-.59.41-.95-.01-.68-.58-1.23-1.27-1.22-31.25.66-60.29,11.96-89.43,23.11-.2.07-.41.03-.56-.11-.23-.21-.25-.56-.04-.79l46.22-50.72c.45-.49,1.13-.7,1.78-.53,25.87,6.61,51.05,5.33,75.53-3.84,6.14-2.3,12.67-6.96,19.59-13.97l.02-.02c.56-.59.55-1.53-.04-2.1-2.7-2.62-6-4.55-9.87-5.78-25.81-8.34-52.42-3.06-75.55,9.38-.11.05-.23.04-.34,0-.21-.1-.29-.35-.2-.55,14.43-24.96,22.36-52.14,23.79-81.53.03-.77.46-1.47,1.14-1.85,26.97-14.99,30.52-46.78,26.76-74.77-1.27-9.48-2.53-18.81-7.51-26.71-1.52-2.38-4.2-3.42-6.13-2.36-6.69,3.69-7.46,13.34-8.17,20.53-.04.3-.27.54-.56.61-.39.09-.78-.16-.87-.56-1.12-7.53-4.28-28.92-16.16-23.3-.7.34-1.3.86-1.73,1.5-4.28,6.49-5.32,13.32-7.22,22.19-.07.26-.28.46-.54.5-.35.06-.68-.17-.73-.53-1.7-9.38-2.04-16.96-6.64-21.19-.09-.09-.19-.17-.29-.24-1.82-1.38-4.49-.94-5.95.97-2.8,3.64-4.68,7.92-5.64,12.83-5.47,28.34-3.16,78.28,29.06,90.98.7.26,1.16.93,1.14,1.68-.74,33.66-11.35,64.69-31.81,93.08-.21.3-.57.45-.93.41-.55-.07-.93-.56-.86-1.11,1.85-13.37,1.78-28.07-4.47-39.78-9.53-17.81-28.31-26.85-48.21-28.8-.17-.02-.34,0-.51.03-.93.19-1.53,1.09-1.34,2.01,5.71,27.92,22.6,45.32,42.23,66.85,3.48,3.82,5.33,6.26,5.54,7.32.18.93-.1,1.88-.75,2.55l-42.63,44.62c-.17.18-.42.29-.67.28-.49-.01-.89-.42-.88-.92v-11.06c0-.86.43-1.68,1.17-2.16l12.95-8.5c.21-.14.38-.33.49-.56.33-.69.03-1.52-.66-1.85-6.46-3.11-13.46-4.9-20.97-5.37-.35-.03-.68-.16-.94-.37-.73-.59-.84-1.67-.24-2.39,4.04-4.94,8.69-9.04,13.97-12.29.28-.18.42-.52.34-.84-.1-.42-.53-.67-.94-.56-2.88.81-6.82,2.72-11.81,5.73-.23.14-.49.19-.76.16-.67-.08-1.14-.68-1.06-1.35,1.67-12.51.79-25.34-2.62-38.49-.1-.37-.26-.73-.48-1.04-1.02-1.48-3.05-1.85-4.53-.83-1.27.85-2.57,5.95-3.99,10.55-.87,2.79-1.56,5.9-2.06,9.36-1.09,7.43-2.67,15.62-4.74,24.55-.18.8-.71,1.46-1.43,1.8-14.99,6.95-27.9,17.25-38.74,30.91-.15.18-.4.25-.62.19-.33-.09-.52-.42-.42-.75,8.72-26.59,17.86-47.63,44.18-60.97.46-.22.74-.69.71-1.2-.04-.68-.63-1.2-1.31-1.16-22.11.99-41.97,15.02-56.48,30.96-.11.15-.32.19-.47.09-.15-.1-.19-.32-.09-.47,13.35-26.34,29.91-49.48,49.67-69.43.24-.25.36-.6.31-.94-.09-.61-.65-1.04-1.26-.95-24.55,3.26-43.91,17.6-58.93,37.67-.12.2-.36.29-.58.21-.26-.09-.39-.37-.29-.62l27.68-114.24c.2-.82.94-1.38,1.8-1.36,33,1.14,44.35-44.86,49.07-69.09,2.04-10.5,6.83-17.6,15.09-22.65.09-.05.17-.11.25-.16,1.89-1.35,2.34-3.97.99-5.86-6.2-8.65-19.78-2.72-26,2.57-.15.12-.33.18-.52.18-.45,0-.8-.37-.79-.81.24-8.24,1.24-27.02-10.69-27.29-9.74-.22-17.08,12.32-19.32,20.32-.05.18-.17.35-.34.45-.36.23-.85.11-1.07-.26-.52-.83-1.18-2.59-1.99-5.3-2.97-10.1-9.78-15.17-20.44-15.24-.83-.01-1.63.28-2.26.83-1.41,1.22-1.56,3.36-.34,4.76,2.85,3.32,4.88,7.52,6.1,12.59.38,1.61.23,3.3-.44,4.81-11.88,26.93-24.11,72.49,1.34,96.11.57.52.81,1.32.63,2.09-9.64,40.75-19.96,80.79-30.96,120.15-3.31,11.81-8.99,22.94-12.52,32.9-.07.24-.29.41-.54.42-.32.01-.59-.24-.6-.56-1.99-22.02-1.97-50.81-4.5-72.76-3.92-33.8-10.86-67.01-20.83-99.66-7.2-23.57-17.94-57.59-32.25-102.06-.58-1.78.23-3.71,1.9-4.57,5.62-2.87,10.65-7.47,15.09-13.8,8.55-12.2,17.69-27.51,29.02-31.98,8.41-3.32,16.07-3.79,22.99-1.38.55.2,1.16.05,1.56-.37.56-.6.54-1.55-.05-2.13-10.3-9.67-22.68-13.52-37.13-11.55-9.69,1.33-18.1,5.49-25.23,12.49-.12.11-.28.18-.45.18-.37,0-.68-.29-.7-.67-.44-14.58,2.06-32.1,11.93-43.35.22-.26.32-.59.29-.93-.07-.7-.68-1.21-1.38-1.13-14.21,1.75-24.68,8.74-31.42,20.97-.04.07-.1.13-.17.17-.2.11-.45.03-.56-.17l-13.05-22.62c-.28-.47-.7-.85-1.21-1.06-1.28-.54-2.76.05-3.29,1.33-6.95,16.41-8.53,32.82-4.74,49.23.03.15.03.3-.01.45-.14.48-.63.76-1.11.62-3.55-1.02-7.97-4.35-12.2-5.34-14.19-3.29-26.44.8-36.74,12.27-.21.21-.27.52-.17.8.15.42.61.65,1.05.51,7.3-2.53,14.12-2.16,20.44,1.09,21.39,11.04,26.54,30.91,46.76,38.35,2.16.8,5.34.49,7.36,1.24.8.3,1.41.95,1.68,1.75,14.48,44.93,25.27,79.56,32.37,103.92,11.74,40.22,20.32,80.24,22.36,123.04.02.11-.05.21-.16.23-.11.02-.21-.05-.23-.16-15.6-39.45-43.78-67.24-84.54-83.38-.15-.05-.3-.08-.46-.06-.53.06-.92.54-.85,1.08.18,1.4.61,2.56,1.29,3.5,12.62,17.92,23.07,33.18,31.35,45.79,9.03,13.74,17.68,32.46,25.95,56.19.28.84-.09,1.75-.87,2.14-6.56,3.31-12.69,8.1-18.37,14.39-.02.02-.03.03-.04.05-.51.52-1.35.52-1.87,0-2.37-2.37-3.58-3.79-3.64-4.25-2.62-22.06-7.43-46.49-27.32-58.3-.28-.16-.62-.18-.92-.05-.53.22-.78.84-.56,1.37,5.32,12.61,3.79,26.05,2.34,40.12-.03.26-.11.5-.24.72-.49.8-1.53,1.06-2.34.57-12.9-7.79-26.56-11.69-41-11.69-.87,0-1.67-.48-2.09-1.24l-7.24-12.78c-.42-.74-.34-1.68.22-2.34,2.2-2.61,5.96-13.65,11.27-33.12,6.22-22.84,7.35-45.41,3.4-67.7-.01-.07-.02-.14-.02-.22-.02-.78.6-1.42,1.38-1.44,9.92-.24,17.74-9.77,10.71-18.52-1.94-2.41-3.1-4.19-3.48-5.32-.07-.24-.03-.49.12-.7.26-.36.76-.44,1.12-.18,8.18,6.11,14.59,6.51,19.22,1.19,6.29-7.24,4.59-16.04-4.67-19.66-1.65-.65-3.39-1.33-5.22-2.04-.11-.05-.21-.13-.29-.22-.28-.33-.23-.82.1-1.1.02,0,1.74-1.02,5.18-3.06,16.5-9.82-5.69-32.3-19.76-14.36-.17.21-.43.31-.7.28-.44-.05-.75-.45-.71-.89.68-5.39.97-12.39-2.87-16.72-6.73-7.58-16.82-4.2-20.9,4.52-.17.38-.24.81-.2,1.24l1.17,11.08c.02.14-.05.28-.16.36-.17.12-.42.08-.54-.1-5.57-8.02-13.58-11.88-21.58-5.32-6.22,5.09-6.91,10.51-2.06,16.26,2.44,2.9,4.81,4.83,7.1,5.81.19.08.33.23.39.43.1.35-.11.71-.46.81-3.42.92-5.66,1.57-6.73,1.94-15.14,5.42-6.83,31.64,13.2,18.64.2-.12.45-.16.67-.1.44.12.7.58.56,1.02-.15.46-1.33,2.12-3.55,5.01-11.45,14.85,11.62,26.27,19.88,13.54.15-.22.36-.39.6-.48.65-.25,1.38.08,1.63.73,1.98,5.24,3.23,10.81,3.74,16.74,2.49,28.37-2.53,55.25-15.06,80.66-.13.26-.31.48-.53.65-.82.63-1.99.48-2.62-.34-15.77-20.66-34.34-36.58-59.83-43.16-.04-.01-.09-.02-.14-.02-.35,0-.64.28-.64.62.02.96.23,1.65.63,2.06,17.62,18.71,31.44,38.95,41.26,62.6.07.18.04.39-.09.54-.18.21-.49.23-.69.04-13.41-11.26-29.05-18.49-46.93-21.68-.13-.02-.25-.07-.36-.14-.5-.3-.67-.96-.36-1.47l9.04-15.65c.2-.35.24-.77.12-1.15-.24-.74-1.02-1.14-1.75-.9-9.38,2.98-16.69,8.38-21.92,16.21-.75,1.12-1.98,1.82-3.33,1.9-17.14.96-30.32,6.46-39.54,16.5-.2.22-.49.32-.78.26-.43-.1-.71-.53-.61-.96,3.76-19.46,11.85-37.5,24.27-54.12.15-.22.17-.49.07-.73-.17-.38-.61-.55-.99-.39-30.76,15.36-51.93,51.74-62.65,84.35-.11.28-.38.47-.68.47-.4,0-.73-.33-.72-.73l3.99-76.47c.04-.78.62-1.43,1.38-1.55,13.85-2.51,26.22-8.68,37.11-18.52,28.43-25.69,46-58.37,62.07-92.2.14-.29.19-.61.15-.93-.11-.92-.96-1.57-1.87-1.46-6.01.78-11.25,2.45-15.72,5.03-33.85,19.44-59.2,52.39-79.22,86.05-.11.21-.34.33-.58.3-.32-.04-.55-.33-.52-.65,3.16-40.44,7.71-81.1,19.41-119.39.33-1.08,1.22-1.89,2.34-2.11,8.44-1.68,15.79-6.26,22.04-13.71,22.97-27.41,32.88-64.69,32.08-100.63-.03-1.47-.53-2.5-1.48-3.08-.08-.05-.17-.1-.26-.14-1.45-.7-3.18-.11-3.85,1.3-5.86,12.23-11.19,24.28-15.97,36.14-.09.32-.43.51-.75.41-.32-.09-.51-.43-.41-.75,2.7-16.98,4.31-27.88,4.81-32.69.41-3.99.28-7.15-.36-9.48-.17-.64-.53-1.21-1.02-1.65-1.41-1.27-3.57-1.15-4.84.27-9.31,10.3-16.5,23.94-22.77,35.87-.23.5-.8.77-1.33.61-.59-.17-.93-.79-.76-1.38l8.68-35.79c.08-.32.09-.65.04-.98-.21-1.34-1.47-2.25-2.81-2.04-6.61,1.04-16.96,17.45-19.9,23.13-8.85,17.14-14.19,35.43-16.04,54.87-1.68,17.68,2.37,33.28,12.15,46.83.52.73.7,1.64.49,2.5-8.31,32.84-13.82,62.9-16.53,90.18-3.45,34.73-6.34,70.75-8.68,108.04-.01.24-.16.47-.39.56-.32.14-.69-.02-.83-.34-4.18-9.33-9.69-18.35-16.55-27.05-.34-.5-.98-.68-1.53-.45-.62.28-.91,1-.64,1.63l17.4,49.16c.2.55.29,1.11.29,1.68v24.01c0,.34-.18.64-.48.79-.45.22-1,.04-1.24-.4-11.74-23.09-29.65-41.51-54.85-49.04-.71-.22-1.1-.97-.9-1.68l13.76-46.73c.08-.28,0-.59-.18-.8-.31-.36-.85-.41-1.2-.09-14.32,12.8-24.61,28.82-30.86,48.07-.24.73-.86,1.25-1.6,1.36-19.56,2.88-36.15,11.2-49.77,24.96-.18.18-.42.27-.67.26-.49-.02-.88-.45-.86-.94l2.41-46.56c.02-.52.45-.95.99-.99,23.67-1.82,48.41-22.7,61.97-40.6,13.39-17.69,22.62-34.9,34.04-57.47.1-.19.12-.41.07-.61-.12-.46-.59-.72-1.04-.6-40.44,11.78-71.35,45.54-92.34,81.29-.22.42-.68.66-1.16.61-.64-.07-1.1-.65-1.03-1.29,3.13-41.04,8.72-82.17,20.61-121.73.25-.77.95-1.3,1.75-1.31,11.53-.08,21.44-3.94,29.72-11.57,14.29-13.17,26.05-24.11,46.15-21.68.27.02.54-.09.71-.31.27-.35.21-.85-.15-1.12-10-7.43-21.01-10.88-33.05-10.33-.18,0-.36-.04-.52-.14-.45-.27-.6-.85-.33-1.3,7.53-12.75,16.66-23.18,27.39-31.28.31-.23.53-.58.61-.96.19-.88-.36-1.75-1.24-1.94-12.34-2.83-23.91-1.93-34.68,2.72-2.06.89-5.9,4.22-11.52,9.99-.1.11-.24.18-.38.21-.4.08-.78-.18-.86-.58l-6.71-33.12c-.08-.4-.29-.77-.58-1.05-.81-.8-2.12-.78-2.92.03-11.58,11.81-18.54,25.5-20.88,41.07-.02.09-.06.18-.13.24-.16.14-.41.12-.55-.04-10.53-12.78-24.17-19.53-40.93-20.25-.41,0-.79.17-1.05.49-.46.56-.37,1.39.2,1.85,18.13,14.07,21.41,33.97,27.65,54.49,2.42,7.91,6.73,14.6,12.95,20.07.52.46.71,1.17.49,1.82-3.43,10.2-6.36,21.08-8.77,32.61-4.49,21.42-7.88,43.11-10.18,65.08-3.45,33.02-5.73,61.7-6.83,86.05-.01.27-.12.53-.32.71-.42.4-1.08.39-1.48-.03-9.66-10.24-19.57-18.9-29.74-25.98-.06-.04-.12-.09-.17-.14-.54-.52-.56-1.38-.04-1.92l10.4-10.89c.16-.18.21-.43.14-.67-.12-.36-.5-.55-.86-.43l-19,7.36c-.17.07-.36.07-.53,0l-14.85-5.47c-.5-.17-1.05-.04-1.42.33-.54.54-.55,1.42-.01,1.96l7.34,7.02c.05.05.1.11.15.17.53.68.42,1.65-.25,2.17-16.22,12.69-30.02,28.16-41.41,46.44-.04.06-.12.1-.2.1-.14,0-.24-.11-.24-.24l2.45-47.22c.06-1.04.67-1.96,1.6-2.41,6.85-3.26,12.39-7.52,16.62-12.78,27.46-34.25,40.78-74.02,39.98-119.32-.11-5.95-1.02-11.93-2.72-17.93-.11-.41-.38-.77-.74-.99-.8-.49-1.85-.24-2.34.55-23.48,37.28-38.88,76.87-50.79,119.49-.04.26-.28.43-.53.39s-.43-.28-.39-.53c2.57-47.78,6.56-96.42,11.96-145.93,3.74-34.38,9.34-69.07,16.79-104.06.26-1.22,1.25-2.16,2.5-2.38,17.64-3.13,23.69-13.9,34.14-26.93.54-.69,1.22-1.27,1.99-1.7,15.55-8.98,31.67-14.8,48.34-17.47.27-.04.51-.15.72-.32.67-.53.79-1.52.25-2.18-9.11-11.37-20.69-16.36-34.75-14.95-.12.01-.24,0-.35-.03-.51-.14-.8-.66-.67-1.16,3.66-13.36,2.88-24.57-2.36-33.61-7.78-13.44-19.83.41-24.04,8.19-.11.2-.33.34-.56.34-.36.02-.65-.26-.66-.61-.6-9.85-4.77-17.86-12.52-24.01-13.22-10.55-22.19,8.72-21.41,19.54.02.24-.1.48-.32.61-.31.19-.71.09-.9-.22-3.13-5.06-21.65-27.88-27.02-14.09-2.97,7.65-2.7,16.91.8,27.8.07.23.03.47-.11.66-.24.34-.72.41-1.05.16-11.05-8.55-24.08-8.6-39.1-.15-.48.27-.87.67-1.13,1.15-.75,1.4-.22,3.13,1.18,3.88,14.32,7.61,27.23,19.34,38.74,35.19.66.88,1.14,1.89,1.41,2.97,3.89,15.19,12.28,26.6,25.18,34.22.61.38.98,1.04.97,1.75-.05,2.17-.42,5.38-1.12,9.62-4.84,29.84-10.25,58.61-13.68,88.92-1.25,10.95-3.51,30.9-6.8,59.83-.03.27-.22.5-.49.57-.35.09-.71-.12-.8-.47-8.09-31.24-21.42-60.21-40.02-86.93-.13-.17-.31-.27-.52-.29-.4-.04-.75.26-.79.66-1.88,29.15,2.05,57.59,11.78,85.32,4.57,13.03,13.68,33.25,25.74,40.65,1.12.69,1.79,1.94,1.73,3.26l-5.49,105.35c-.03.18-.17.34-.35.39-.26.07-.53-.08-.6-.34-1.73-10.71-4.55-21.75-8.43-33.12-9.57-28.01-22.73-55.96-39.46-83.84-18.25-30.38-44.4-61.7-75.8-77.54-.39-.19-.84-.17-1.21.04-.6.35-.8,1.13-.45,1.73,15.94,25.58,31.61,50.86,47,75.84,26.22,42.53,45.81,81.66,58.4,127.63.09.3-.04.61-.3.77-.32.19-.74.09-.93-.24-12.1-19.23-26.59-36.43-43.45-51.59-1.37-1.25-1.7-3.28-.78-4.88l8.41-14.55c.25-.4.2-.92-.13-1.27-.4-.42-1.06-.44-1.48-.04-3.61,3.31-7.74,7.94-12.37,13.9-.61.78-1.7.99-2.55.49l-9.79-5.64c-.75-.42-1.69-.24-2.21.44l-.63.8c-.39.52-.33,1.25.15,1.7l5.95,5.69c.88.83.99,2.2.24,3.16-13.25,16.98-24.63,36.27-34.14,57.86-.41.92-1.29,1.55-2.31,1.65l-13.66,1.46c-.14.02-.29,0-.43-.03-.72-.16-1.17-.88-1-1.6,4.5-20.61,13.15-39.91,25.95-57.91.14-.22.16-.49.05-.72-.17-.38-.62-.54-1-.37-24.77,12.62-42.36,31.69-52.78,57.21-.07.16-.23.24-.39.2l-.58-.2c-.48-.13-.78-.61-.68-1.09,9.25-44.76,23.92-87.51,44.01-128.24.13-.25.14-.55.01-.8-.22-.43-.74-.6-1.17-.39-2.46,1.17-4.5,2.44-6.13,3.84-27.37,23.74-46.17,56.11-60.29,90.36-.1.25-.35.4-.62.37-.33-.03-.58-.33-.54-.67,2.21-29.43,5.1-49.96,8.14-78.69,4.68-44.21,11.68-94.86,20.99-151.93.16-.98.9-1.76,1.87-1.97,5.52-1.12,11.29-4.97,17.3-11.57,17.84-19.61,38.57-53.19,68.41-51.79.16.01.32-.05.43-.16.22-.22.23-.57.01-.79-15.29-15.87-40.78-12.15-56.74.73-.15.12-.35.16-.54.11-.34-.09-.54-.43-.46-.77l13.49-45.86c.1-.34.08-.71-.06-1.04-.33-.77-1.22-1.11-1.98-.78-14.92,6.29-27.48,23.67-32.95,38.11-.08.22-.28.39-.51.42-.36.06-.7-.18-.75-.54-3.29-16.61-8.05-31.86-14.29-45.76-.61-1.38-1.2-2.25-1.75-2.62-.11-.08-.23-.14-.36-.2-.96-.39-2.05.09-2.43,1.04-7.96,20.14-11.62,40.74-10.99,61.8,0,.26-.12.49-.33.64-.35.25-.84.17-1.09-.18-10.76-16.11-21.7-28.43-39.76-37.3-.46-.23-.99-.27-1.49-.12-1.06.33-1.66,1.46-1.33,2.53,7.2,23.98,17.42,46.41,30.69,67.29,7.65,12.06,15.95,20.77,24.91,26.15.35.21.55.6.49.99l-20.71,153.32c-.03.11-.1.19-.21.23-.17.05-.34-.04-.4-.2-4.44-23.2-12.63-45.37-24.57-66.51-4.68-8.29-10.59-15.64-17.71-22.04-.2-.17-.45-.28-.71-.31-.7-.07-1.31.44-1.38,1.13-2.67,31.47,7.12,67.07,21.07,95.36,5.75,11.65,12.26,20.13,19.54,25.44.37.26.58.69.53,1.14l-8.04,83.16c0,.15-.09.28-.22.34-.2.11-.45.03-.56-.17-14.65-23.84-29.31-46.73-47.97-66.59-.51-.55-.67-1.34-.41-2.04l12.54-33.97c.1-.26.08-.54-.05-.78-.25-.45-.83-.61-1.29-.36-1.57.84-3.1,2.09-4.59,3.74-5.25,5.75-10.86,12.69-16.84,20.83-.03.04-.06.08-.09.11-.74.89-2.05,1.01-2.92.28-5.02-4.13-10.36-7.1-16.01-8.9-.03-.01-.06-.02-.09-.03-.7-.28-1.04-1.07-.76-1.76,11.49-29.61,11.9-59.61,1.24-89.99-1.67-4.73-3.96-9.18-6.88-13.34-.2-.29-.49-.51-.82-.61-.84-.28-1.75.18-2.03,1.03-6.39,18.98-8.75,42.43-11.37,62.24-2.5,19.1-6.61,32.97-11.74,54.95-.08.29-.29.52-.57.61-.46.15-.96-.1-1.1-.56-14.53-46.15-23.08-93.39-25.64-141.7-.04-.79.42-1.53,1.17-1.82,6.29-2.44,12.87-6.59,19.76-12.42,35.02-29.77,42.63-69.04,33.56-112.81-.08-.38-.25-.73-.5-1.03-.84-.98-2.32-1.1-3.31-.26-9.54,8.23-17.89,18.24-25.06,30.04-.12.18-.3.32-.51.39-.47.15-.97-.11-1.1-.58-6.59-20.9-21.17-38.25-35.79-54.31-.04-.04-.08-.08-.13-.12-.46-.37-1.13-.29-1.5.17-10.23,13.05-13.78,37.32-13.9,53.1,0,.12-.04.23-.12.32-.18.18-.48.2-.68.02l-24.47-22.28c-.1-.09-.21-.17-.34-.23-.69-.33-1.52-.04-1.85.64-6.49,13.44-12.18,25.81-13.78,40-4.4,39.2,20.15,71.35,57.64,81.48.7.18,1.21.79,1.29,1.5.46,4.49,1.24,12.96,2.36,25.42,1.47,16.44,4.4,36.28,8.77,59.51,4.08,21.58,10.28,39.49,17.13,63.77.1.35,0,.72-.28.96-.39.34-.97.29-1.3-.09-32-35.67-72.44-59.17-122.11-53.27-.26.03-.49.15-.66.34-.38.43-.34,1.11.1,1.5,14.6,12.73,31.83,26.27,51.72,40.61,19.03,13.71,49.38,29.89,74.05,27.73.83-.07,1.59.47,1.8,1.29,4.96,19.85,10.74,43.16,4.52,62.04-.08.23-.24.43-.45.55-.48.29-1.11.12-1.4-.36-11.6-19.52-27.06-35.8-46.37-48.84-.93-.64-1.58-1.62-1.8-2.72l-.34-1.63c-.04-.21-.14-.41-.27-.58-.47-.59-1.33-.67-1.91-.2-3.27,2.72-7.05,3.02-11.35.9-.75-.38-1.68-.17-2.21.51-1.02,1.31-.52,2.88,1.5,4.71.73.65.83,1.75.24,2.53l-15.31,20.07c-.36.48-.95.71-1.53.61l-21-3.55c-.69-.12-1.18-.74-1.12-1.43,1.77-19.77,4.95-38.46,9.55-56.09.03-.15-.01-.31-.11-.43-.18-.2-.49-.21-.68-.03-21.07,19.83-31.3,46.9-35.43,75.04-.1.64-.59,1.16-1.22,1.29l-.97.2c-.08.02-.16.02-.24.02-.55-.02-.98-.49-.95-1.04.56-17.33,4.55-33.84,11.96-49.53.1-.18.09-.4-.03-.57-.17-.26-.52-.33-.78-.16-23.44,14.81-36.99,35.54-40.65,62.21-.2,1.52-1.04,2.86-2.31,3.69l-7.48,4.93c-.53.34-1.18.46-1.8.3-1.24-.3-2-1.55-1.71-2.79,6.74-27.37,15.87-49.7,27.39-67,1.76-2.66,4.32-5.82,7.66-9.48.12-.15.17-.34.13-.52-.07-.34-.4-.56-.74-.5-19.61,4.62-36.28,13.27-47.41,30.23-.16.27-.48.4-.78.32-.38-.1-.61-.48-.51-.86,1.67-7.52,2.83-14.45,3.5-20.8,3.13-30.55,4.24-59.7,3.33-87.44-.02-.74.51-1.39,1.24-1.53.2-.03,1.87-.17,5.03-.41,37.16-2.77,58.84-27.75,57.3-65.47-.03-.81-.67-1.47-1.48-1.5-13.72-.58-25.9,2.93-36.53,10.55-.14.1-.3.16-.47.18-.55.07-1.04-.32-1.11-.87-1.41-10.16-4.68-18.55-9.82-25.18-5.42-7.02-13.78-9.82-21.7-4.04-8.1,5.9-12.95,14.14-14.53,24.71-.03.21-.13.41-.29.55-.38.36-.98.34-1.34-.04-7.99-8.37-18.09-14.3-30.3-17.79-.04-.01-.09-.02-.14-.03-.78-.15-1.53.36-1.66,1.12-6.56,33.83,13.03,66.49,45.66,77.01.73.23,1.23.9,1.27,1.68.94,34.96-1.25,69.5-6.59,103.6-.02.11-.47,1.76-1.36,4.93-.07.32-.33.56-.65.61-.42.06-.82-.23-.88-.66-2.01-10.32-4.77-19.14-8.29-26.46-6.41-13.36-16.48-22.31-30.21-26.83-.6-.21-1.27,0-1.65.49-.5.65-.38,1.58.27,2.08,17.4,13.56,8.87,31.69,3.33,50.16-4.62,15.42-7.05,30.06-7.29,43.91,0,.22-.07.42-.17.61-.35.59-1.11.78-1.7.43l-1.31-.75c-1.18-.68-1.93-1.92-1.99-3.28-.92-20.63-2.16-39.08-3.69-55.38-1.7-18.05-8.7-33.28-20.99-45.71-.2-.19-.47-.27-.73-.22-.45.09-.74.52-.65.97,6.54,27.32,3.94,56.26,1.94,84.52-.01.22-.09.42-.22.59-.36.47-1.04.55-1.5.18l-16.72-12.73c-.45-.34-.8-.78-1.04-1.29-17.23-35.87-18.54-69.04-16.33-109.84,1.94-36.08,9.92-71.22,23.91-105.42.16-.4.56-.65,1-.63,20.83.79,36.45-7.77,46.83-25.69,2.49-4.31,4.07-8.68,4.71-13.12.2-1.4-.68-2.73-2.04-3.11-7.58-2.07-15.51-2.74-23.79-1.99-.1.01-.21,0-.32-.02-.65-.12-1.07-.75-.95-1.42.78-4,.61-8.37-.51-13.1-3.57-15.31-36.6-18.03-39.98-1.5-.03.13-.08.26-.16.36-.3.42-.89.52-1.3.22-7.3-5.17-14.45-8.68-21.41-10.55-2.05-.56-4.18.56-4.86,2.57-9.21,26.95,6.54,54.12,31.91,64.74.7.29,1.05,1.09.78,1.8-16.17,41.6-24.43,85.91-24.79,132.9-.02.35-.27.65-.61.73-.43.1-.86-.16-.97-.59-4.55-22.14-15.19-42.79-36.74-52.59-.15-.07-.31-.11-.47-.14-.88-.11-1.68.52-1.79,1.4-4.3,36.77,3.99,60.39,36.21,79.68.54.32,1.16.49,1.78.49,1.46.03,2.55.31,3.28.83.77.54,1.24,1.39,1.29,2.31.97,15.78,3.51,30.76,7.63,44.93.02.05.02.11.02.17-.01.34-.28.6-.6.58l-14.97-.78c-.47-.03-.93.18-1.21.57-.45.62-.32,1.48.3,1.93,10.71,8.02,18.64,15.19,23.55,27.34.21.49,2.7,6.31,7.48,17.47.11.22.09.49-.04.7-.21.33-.65.41-.98.2-11.4-6.89-22.26-12.04-32.56-15.46-.87-.28-1.51-1.04-1.63-1.94-3.45-26.68-.81-52.19,7.92-76.52.16-.43.14-.92-.05-1.34-.41-.87-1.45-1.25-2.32-.85-1.44.66-2.7,1.68-3.79,3.06-16.43,20.95-22.33,43.11-26.85,69.24-.04.19-.11.37-.22.54-.45.66-1.34.83-1.99.39-11.23-7.6-24.04-13.81-38.44-18.64-1.98-.65-3.82-.99-5.54-1.04-.23,0-.46-.07-.67-.18-.71-.39-.96-1.28-.57-1.98,5.93-10.64,13.34-17.52,22.55-26.81.32-.29.4-.77.19-1.15-.25-.46-.83-.63-1.29-.38-23.28,11.13-36.94,27.68-50.14,49.7-.4.67-1.19,1-1.94.8-5.27-1.43-9.53-5.62-13.73-6.88-.24-.07-.51.02-.66.22-.2.27-.15.65.12.85l12.18,9.28c.81.61,1.08,1.71.63,2.62-6.85,14.02-11.56,28.34-14.12,42.99-.02.12-.11.22-.22.26-.18.06-.37-.03-.43-.21-8.26-25.62-11.62-52.23-10.06-79.85,1.23-22.05,2.52-35.77,3.86-41.16.21-.83.89-1.44,1.73-1.55,29.78-3.95,49.36-21.06,58.76-51.33.07-.21.1-.43.09-.65-.04-1.08-.93-1.91-2.01-1.88-24.23.8-42.79,15.46-55.82,35.07-.11.2-.34.3-.57.25-.29-.07-.48-.36-.42-.66l10.64-62.82c.14-.8.58-1.52,1.22-2.01,19.64-14.85,26.61-43.48,18.27-66.44-.05-.13-.07-.27-.06-.41.03-.56.51-.99,1.05-.95,11.36.71,21.37-1.97,30.06-8.04,2.29-1.6,3.82-3.17,4.59-4.69.67-1.31.33-2.91-.8-3.84-12.51-10.24-26.48-13.67-41.92-10.3-.05.01-.1.02-.15.02-.68.07-1.29-.45-1.36-1.14-1.02-11.59-3.6-24.52-11.86-31.4-.61-.51-1.49-.59-2.21-.2-10.06,5.69-16.31,18.44-19.08,29.97-.04.15-.1.3-.2.42-.38.52-1.11.64-1.63.26-14.53-10.6-30.98-12.65-49.35-6.17-.09.03-.18.07-.26.12-.9.49-1.22,1.61-.73,2.51,7.63,13.83,19.85,26.37,35.97,27.9.04,0,.08.01.12.02.24.08.37.34.29.59-4.55,14.55-4.07,28.8,1.43,42.74,5.14,13.04,13.47,22.56,25.01,28.55.47.25.73.75.66,1.27l-16.11,119.27c0,.08-.05.15-.12.19-.11.05-.24.01-.29-.09l-11.93-20.66c-.05-.09-.13-.17-.22-.21-.23-.1-.52.01-.63.26-.42.91-.59,1.87-.51,2.89,2.09,28.9,5.73,57.2,10.94,84.89.08.3-.04.61-.3.78-.34.22-.79.14-1.01-.2-11.19-14.89-24.32-26.64-39.39-35.26-.97-.55-1.72-1.43-2.11-2.48l-17.35-44.67c-.77-1.96-.37-4.18,1.02-5.76,17.88-20.15,22.14-46.76,17.81-72.78-.02-.09-.04-.17-.07-.26-.27-.69-1.04-1.03-1.73-.77-17.45,6.69-25.71,29.89-26.93,47.34-.34,4.78-.56,8.99-.68,12.64-.01.14-.08.27-.18.35-.22.18-.54.15-.72-.06-1.53-1.92-2.43-5.64-3.23-6.95-10.84-17.77-26.76-29.02-47.75-33.73-.21-.05-.43-.05-.65-.02-.97.15-1.64,1.05-1.49,2.01,3.67,24.71,18.37,47.8,43.6,55.02,3.35.96,6.62,1.23,9.79.83.7-.09,1.34.35,1.5,1.02,3.43,14.09,8.55,27.53,15.36,40.32.12.21.11.46-.03.66-.2.28-.57.34-.85.15-12.07-8.09-26.3-12.85-42.67-14.29-.29-.03-.59.04-.84.2-.64.39-.84,1.23-.45,1.87.61.99,1.25,1.68,1.9,2.06,29.45,17.17,51.31,41.27,65.56,72.3.07.1.04.24-.06.3-.1.07-.24.04-.3-.06-32.46-31.28-74.22-56.62-119.25-61.82-.29-.03-.64.02-1.04.15-.41.15-.72.28-.95.41-.2.1-.35.26-.45.45-.27.52-.07,1.17.45,1.44,31.32,16.87,56.53,42.21,76.7,70.55.16.22.17.52.04.76-.2.34-.62.46-.96.26-26.08-14.34-53.37-24.72-83.11-23.25-.19.02-.36.11-.48.26-.23.3-.18.72.12.96l53.02,40.39c.3.24.45.62.41,1-.07.62-.64,1.08-1.26,1.01-34.65-4.91-68.36-1.44-101.12,10.4-1.35.49-1.96,1.27-1.85,2.34.05.42.37.75.78.83l-.03-.03ZM1521.96,718.73l9.14-12.01c.13-.16.3-.28.51-.33.49-.13.99.18,1.12.67,3.36,13.15,5.18,24.19,5.47,33.12.02.29-.12.58-.36.75-.39.29-.94.2-1.22-.19l-14.65-19.15c-.65-.85-.65-2.02,0-2.87h0ZM1441.18,692.01c.3-.88,1.27-1.35,2.16-1.06,8.86,3.03,17.05,8.46,24.57,16.28.26.28.26.71,0,.99l-10.64,11.69s-.05.05-.09.07c-.2.11-.45.05-.56-.15l-15.29-26.46c-.24-.42-.29-.91-.14-1.37h0ZM1346.74,663.54c17.42-5.49,39.3,19.46,47.02,33.56.2.34.13.77-.17,1.04l-15.24,14.02s-.07.06-.11.08c-.26.14-.59.04-.74-.22-8.57-15.97-19.12-31.06-31.64-45.28-.18-.2-.31-.44-.4-.69-.34-1.04.22-2.17,1.27-2.51h0ZM1331.31,702.47c.02-.17.12-.34.27-.43.27-.17.61-.1.78.16l11.86,18.06s.01.01.01.02c.37.56.21,1.31-.35,1.68l-13.83,9.09c-.18.11-.39.16-.6.14-.51-.05-.87-.5-.8-.99l2.67-27.73ZM1288.05,676.59c.27-2.22,1.68-4.15,3.72-5.1l17.18-7.97c1.67-.78,3.63-.59,5.13.49,1.02.71,2.42,2.64,4.18,5.78.5.92.45,2.04-.15,2.89-12.12,17.38-20.58,36.53-25.39,57.45-.11.41-.43.73-.85.83-.62.15-1.26-.23-1.41-.86-3.82-17.46-4.63-35.3-2.41-53.51h0ZM1178.55,688.04c0-.36.16-.7.46-.92.49-.37,1.19-.26,1.56.23,8.17,10.84,14.12,20.98,17.86,30.43.76,1.94,1.14,3.23,1.14,3.84,0,.38-.18.74-.49.97-.55.43-1.35.33-1.78-.22-5.34-6.85-10.45-7.58-17.4-10.01-.81-.27-1.36-1.04-1.36-1.92v-22.41h0ZM1142.49,705.27l8.77-9.62c.16-.2.43-.28.67-.22.35.09.56.45.47.8-.41,1.98-1.48,5.37-3.23,10.18-1,2.75-3.13,3.13-6.36,1.12-.07-.04-.14-.09-.2-.15-.61-.54-.67-1.49-.12-2.11h0ZM1045.99,691.41l10.16-13.32c.1-.14.24-.26.39-.35.62-.36,1.43-.15,1.79.47l14.27,24.74c.22.37.29.83.19,1.25-.21.93-1.13,1.52-2.06,1.3-9.53-2.17-17.51-5.35-23.96-9.55-.06-.04-.11-.08-.17-.12-1.39-1.05-1.66-3.04-.61-4.43h0ZM1037.14,719.02l2.43-10.04c.03-.14.09-.27.17-.38.35-.49,1.04-.6,1.53-.25,2.29,1.68,4.08,3.36,5.39,5.01.07.09.13.18.17.29.2.54-.08,1.15-.63,1.36-1.93.71-4.1,2.48-6.51,5.3-.36.42-.93.6-1.47.47-.79-.18-1.28-.97-1.08-1.76h0ZM915.85,683.15l9.82-26.61c.05-.13.14-.24.24-.32.32-.24.78-.17,1.02.15,8.37,11.86,15.58,26.1,21.6,42.72.12.31.09.66-.09.94-.31.49-.96.64-1.44.33-9.77-6.09-19.69-10.84-29.74-14.27-.02,0-.04-.02-.07-.02-1.17-.42-1.78-1.73-1.35-2.92h0ZM913.35,699.67c.28-.26.74-.2,1.38.2.09.05.16.11.23.18.42.41.46,1.04.08,1.4-.37.39-.87.38-1.48-.02-.09-.05-.17-.13-.24-.2-.43-.46-.42-1.16.02-1.55h0ZM731.28,705.02s-.44.07-1.22.2c-.78.15-1.17.22-1.19.22h0c-.74-.01-1.33-.62-1.31-1.36.03-2.92.53-4.45,1.5-4.62s1.97,1.12,2.99,3.84h0c.26.69-.09,1.46-.78,1.72h0ZM766.3,700.94l3.82,10.81c.07.2.06.41-.04.59-.18.36-.62.49-.98.31-3.38-1.68-10.67-7.78-5.13-12.34.14-.11.29-.2.46-.26.77-.27,1.61.13,1.87.89h0ZM755.49,675.58c.66-.26,1.4.07,1.65.72l7.02,18.06c.07.19.09.4.07.61-.24,1.7-2.08,2.88-5.52,3.52-.79.14-1.59,0-2.26-.39l-11.55-6.66s-.1-.06-.14-.09c-.53-.41-.63-1.17-.22-1.71l10.38-13.63c.15-.19.34-.34.56-.42h0ZM730.26,681.3l11.11-30.11c.07-.19.2-.35.36-.47.43-.29,1.04-.17,1.34.27l10.79,16.41c1.28,1.95,1.05,4.52-.56,6.2l-12.69,13.27c-.72.77-1.84,1.02-2.85.66l-5.59-2.06h-.01c-1.67-.62-2.53-2.48-1.91-4.15h0ZM690.75,648.01c7.7-7.56,14.55-16.61,20.56-27.12.08-.14.17-.28.27-.41,1.25-1.65,3.6-1.96,5.25-.71l11.4,8.7c1.77,1.34,2.18,3.83.92,5.66-9.03,13.28-17.12,25.61-24.3,36.96-2.43,3.87-4.5,11.2-7.07,13.73-.07.07-.15.11-.25.13-.28.05-.55-.12-.6-.4l-6.92-34.09c-.17-.9.11-1.81.75-2.45h0ZM648.24,716.18l5.08,7.73c1.03,1.54.68,3.63-.8,4.76l-6.46,4.93c-.18.14-.39.26-.61.34-1.27.49-2.68-.13-3.16-1.38l-5.64-14.53c-.05-.13-.09-.27-.1-.41-.09-.85.53-1.62,1.38-1.71l7.97-.83c.92-.1,1.82.32,2.34,1.09h0ZM623.73,701.58l4.93-16.74c.12-.39.39-.73.74-.93.77-.46,1.76-.2,2.2.57l9.38,16.23c.14.24.22.52.21.8-.01.85-.71,1.52-1.55,1.52h-14.83c-.1,0-.21-.02-.31-.04-.61-.17-.96-.8-.78-1.39h0ZM582.15,696.62v-.03c.03-.18.2-.32.39-.29l17.23,2.94c.06.01.11.03.17.06.24.14.33.45.2.7l-10.74,18.62c-.83,1.46-2.42,2.32-4.09,2.23-2.44-.14-4.31-2.23-4.17-4.66l1.02-19.56h0ZM298.3,716.03l6.13,9.33c.14.21.24.45.29.7.21,1.06-.48,2.1-1.55,2.31l-15.24,3.08c-1.49.29-3.04-.16-4.15-1.22l-10.79-10.3c-.41-.4-.66-.92-.72-1.49-.14-1.32.82-2.49,2.13-2.62l19.22-2.01c1.85-.2,3.66.66,4.69,2.21h0ZM269.63,709.13l7.17-19.41c.08-.22.22-.42.41-.56.55-.42,1.36-.31,1.8.25l13.9,18.13s.05.09.05.13c.02.16-.09.31-.25.33l-22.16,2.34c-.12.01-.25,0-.37-.05-.47-.16-.72-.67-.55-1.15h0ZM265.6,732.46c0-.23.1-.45.29-.59.33-.24.8-.17,1.05.15l6.03,7.87h0c.56.72.42,1.76-.32,2.34l-5.98,4.59c-.11.08-.23.12-.36.12-.37.01-.69-.28-.71-.66v-13.83h0Z"/>
</svg>